HIERARCHY
ROOT Pelvis
{
	OFFSET 0.000000 0.000000 0.000000
	CHANNELS 6 Xposition Yposition Zposition Zrotation Yrotation Xrotation 
	JOINT Left_hip
	{
		OFFSET 0.076090 -0.089427 -0.010735
		CHANNELS 3 Zrotation Yrotation Xrotation
		JOINT Left_knee
		{
			OFFSET 0.030200 -0.359518 -0.003501
			CHANNELS 3 Zrotation Yrotation Xrotation
			JOINT Left_ankle
			{
				OFFSET -0.011005 -0.371022 -0.045888
				CHANNELS 3 Zrotation Yrotation Xrotation
				JOINT Left_foot
				{
					OFFSET 0.023930 -0.052103 0.111084
					CHANNELS 3 Zrotation Yrotation Xrotation
					End Site
					{
						OFFSET 0.000000 0.000000 0.000000
					}
				}
			}
		}
	}
	JOINT Right_hip
	{
		OFFSET -0.073836 -0.088112 -0.007709
		CHANNELS 3 Zrotation Yrotation Xrotation
		JOINT Right_knee
		{
			OFFSET -0.035715 -0.367809 -0.006536
			CHANNELS 3 Zrotation Yrotation Xrotation
			JOINT Right_ankle
			{
				OFFSET 0.013718 -0.371958 -0.043815
				CHANNELS 3 Zrotation Yrotation Xrotation
				JOINT Right_foot
				{
					OFFSET -0.021936 -0.046387 0.114542
					CHANNELS 3 Zrotation Yrotation Xrotation
					End Site
					{
						OFFSET 0.000000 0.000000 0.000000
					}
				}
			}
		}
	}
	JOINT Spine1
	{
		OFFSET -0.001865 0.102064 -0.019455
		CHANNELS 3 Zrotation Yrotation Xrotation
		JOINT Spine2
		{
			OFFSET 0.003082 0.129260 -0.001938
			CHANNELS 3 Zrotation Yrotation Xrotation
			JOINT Spine3
			{
				OFFSET 0.001104 0.048093 0.026561
				CHANNELS 3 Zrotation Yrotation Xrotation
				JOINT Neck
				{
					OFFSET -0.002010 0.204222 -0.047183
					CHANNELS 3 Zrotation Yrotation Xrotation
					JOINT Head
					{
						OFFSET 0.005050 0.063649 0.048489
						CHANNELS 3 Zrotation Yrotation Xrotation
						End Site
						{
							OFFSET 0.000000 0.000000 0.000000
						}
					}
				}
				JOINT Left_collar
				{
					OFFSET 0.072979 0.114065 -0.031633
					CHANNELS 3 Zrotation Yrotation Xrotation
					JOINT Left_shoulder
					{
						OFFSET 0.083419 0.032092 -0.006530
						CHANNELS 3 Zrotation Yrotation Xrotation
						JOINT Left_elbow
						{
							OFFSET 0.239393 -0.012014 -0.025060
							CHANNELS 3 Zrotation Yrotation Xrotation
							JOINT Left_wrist
							{
								OFFSET 0.227297 0.008116 0.000384
								CHANNELS 3 Zrotation Yrotation Xrotation
								JOINT Left_palm
								{
									OFFSET 0.074607 -0.009248 -0.012277
									CHANNELS 3 Zrotation Yrotation Xrotation
									End Site
									{
										OFFSET 0.000000 0.000000 0.000000
									}
								}
							}
						}
					}
				}
				JOINT Right_collar
				{
					OFFSET -0.074980 0.111880 -0.037894
					CHANNELS 3 Zrotation Yrotation Xrotation
					JOINT Right_shoulder
					{
						OFFSET -0.087565 0.034353 -0.009323
						CHANNELS 3 Zrotation Yrotation Xrotation
						JOINT Right_elbow
						{
							OFFSET -0.236838 -0.013719 -0.019794
							CHANNELS 3 Zrotation Yrotation Xrotation
							JOINT Right_wrist
							{
								OFFSET -0.235053 0.006433 -0.003853
								CHANNELS 3 Zrotation Yrotation Xrotation
								JOINT Right_palm
								{
									OFFSET -0.075499 -0.006894 -0.009792
									CHANNELS 3 Zrotation Yrotation Xrotation
									End Site
									{
										OFFSET 0.000000 0.000000 0.000000
									}
								}
							}
						}
					}
				}
			}
		}
	}
}
MOTION
Frames: 16
Frame Time: 0.100000
0.145893 -0.000638 0.136481 164.378159 41.718839 -31.574813 8.983476 -2.376754 -1.201068 -6.936144 -5.570759 28.910394 -4.448176 14.017863 -14.215228 3.896590 8.665996 -12.092288 8.556794 -5.655614 17.016466 3.859400 13.468134 -4.964496 8.004313 -10.863812 -8.416286 -13.252874 5.919676 -8.324565 7.047481 -0.190419 10.426352 -1.145612 0.141294 2.317270 3.605297 -0.256761 9.618070 -14.384803 1.914594 -7.499159 -3.993631 15.043219 -15.847662 -1.909129 14.856196 -2.289537 -39.015434 -11.050454 -8.967438 122.890062 -38.326230 -119.314171 56.677538 11.250754 -58.134511 10.657727 -3.516633 31.047457 1.256809 -4.961375 3.690534 40.825000 -13.720951 28.631896 88.877331 57.617724 119.391962 -46.625965 27.260377 3.203217 -0.563177 3.810601 7.863238 
0.146452 0.001418 0.134576 163.780290 41.794102 -32.148945 9.333873 -2.393357 -1.630583 -6.969969 -5.498738 29.799796 -4.274193 14.137697 -14.627992 4.047575 8.084665 -12.182326 8.563516 -6.010404 17.314885 4.314702 13.385428 -5.310038 7.188405 -10.088816 -8.215439 -11.502341 4.540676 -7.930714 7.612610 -0.163830 11.304118 -0.748759 0.644267 2.834456 3.897734 -0.287132 10.390360 -14.172403 4.054444 -5.650369 -5.545059 18.139857 -14.946245 -4.511467 19.219131 -1.746237 -43.895734 -7.813109 -7.744281 122.765360 -39.565961 -118.962388 57.096584 13.154254 -60.102258 9.582372 -3.771737 30.399686 2.977263 -8.445208 4.079464 40.506496 -13.888113 27.931070 90.119740 59.677388 120.703415 -48.011033 28.085612 3.945029 0.502218 4.014676 7.334667 
0.148637 0.000789 0.132223 163.144154 43.894773 -33.017273 8.651151 -3.276876 -1.719723 -6.882297 -6.243666 29.435490 -4.033256 13.476126 -13.840157 3.937545 8.889980 -12.344796 8.356431 -6.418515 17.378852 4.191436 12.415086 -5.370972 7.681294 -11.481812 -8.484124 -12.656429 6.419196 -7.673335 7.236980 0.320805 11.246790 -0.927726 0.417964 3.840351 3.835335 -0.164779 10.280883 -14.428639 9.507716 -4.859235 -6.586698 22.116567 -13.189917 -4.226336 14.670316 -2.074040 -41.317276 -11.033867 -6.231520 126.205333 -40.832915 -122.048307 53.926749 10.795266 -59.905039 9.462077 -3.895332 30.253469 3.015916 -6.310841 4.558253 39.180119 -12.992290 28.284753 91.251759 60.053485 121.300101 -44.620522 27.897266 4.657020 0.707026 4.117106 6.928279 
0.149628 0.000888 0.128349 161.891846 46.774806 -33.775663 7.800749 -4.871746 -2.713926 -6.719269 -6.502170 29.208199 -3.469316 12.723235 -12.996108 4.503115 9.449731 -12.916126 7.960269 -6.715653 16.651111 4.448794 11.087318 -5.289887 8.556213 -13.121887 -9.284742 -15.139529 8.589064 -7.308943 6.982089 1.068098 9.827257 -0.579785 0.040818 4.791852 3.866017 -0.172728 10.274337 -14.564446 15.496006 -4.094730 -7.540847 26.124471 -10.247109 -2.953079 9.419135 -1.951344 -42.916076 -15.979874 0.064319 137.502867 -45.667882 -132.433768 42.120069 7.731876 -66.386541 9.613462 -3.994378 31.039467 2.190971 -4.588847 5.125834 38.241418 -11.190791 28.995559 92.752560 60.267624 121.443491 -35.824494 25.771922 5.195966 0.849909 4.319716 5.841249 
0.149092 0.001162 0.123756 161.793394 47.639166 -33.935581 7.123023 -5.476126 -2.786941 -6.554156 -6.321025 28.803077 -3.315266 12.124672 -12.387821 4.830050 10.170269 -13.748135 7.494453 -6.530470 16.325412 4.509332 10.365466 -4.924046 8.547971 -13.335819 -9.596631 -15.566481 8.718249 -6.956817 7.335795 0.677222 9.879273 -0.901056 0.097362 6.126824 3.741053 -0.426296 10.313791 -14.410190 17.771050 -3.597819 -8.782707 29.329529 -9.833543 -4.806365 8.218444 -0.802202 -48.281044 -15.755962 5.348115 149.498104 -43.245794 -139.924776 40.610561 7.051546 -67.636198 9.330576 -3.980043 30.334026 2.602072 -3.445591 5.774290 37.546996 -9.595952 28.924431 92.532292 60.464579 120.804496 -34.995863 25.835069 6.463893 1.195072 4.267911 4.883450 
0.148040 -0.000762 0.119446 163.182219 47.080581 -31.911351 6.473140 -5.197569 -3.179678 -6.341392 -5.465325 27.364513 -2.660207 11.668119 -11.134833 4.007228 11.333675 -15.094919 6.675221 -6.144697 15.137620 4.354339 10.136811 -4.995661 8.175458 -12.215960 -8.464099 -14.530399 7.296728 -7.413879 8.000713 0.432591 10.304613 -1.844209 1.686375 5.811439 3.375458 -0.020294 10.629324 -13.184985 16.985773 -1.812464 -9.033669 30.726738 -9.133958 -7.870648 13.205370 -0.688363 -54.081983 -13.148819 6.030665 150.061294 -42.191047 -137.696828 41.143587 6.810131 -66.748565 9.649875 -4.039794 29.866923 3.228822 -5.324982 6.407993 38.352072 -8.889845 28.959575 90.547027 60.492542 119.109718 -36.041848 26.291488 7.430285 1.035075 3.999221 5.110836 
0.148253 -0.002327 0.114423 163.309556 47.941706 -31.322014 5.504515 -5.873329 -3.518490 -6.007967 -6.193696 26.276463 -2.728922 12.173247 -10.473201 4.597341 11.243385 -15.097316 6.371263 -5.964784 13.999471 4.160129 9.661735 -4.467542 8.109789 -12.504677 -8.063636 -14.350836 6.557293 -7.826432 7.991823 0.428709 11.116923 -2.197609 2.315552 6.336122 3.369794 0.107923 11.313404 -12.184808 16.414836 -0.212261 -9.002247 31.234157 -10.689588 -9.211471 16.794470 -0.267735 -56.966871 -9.139471 6.123788 148.460085 -43.414300 -136.406638 42.533692 9.317987 -67.150219 9.208607 -4.292907 28.949171 3.513929 -6.857587 6.229256 38.892965 -8.423644 28.664220 89.143509 60.863325 117.702342 -37.758454 26.541363 9.010943 1.225527 4.259147 4.558963 
0.151264 -0.002429 0.106679 161.742783 50.902645 -31.494644 4.416365 -7.453023 -5.364576 -5.333193 -7.635826 25.622680 -2.978514 12.120457 -9.217496 5.340770 10.850335 -15.372692 6.346076 -6.099153 12.142721 3.959818 8.012201 -4.374269 8.556262 -13.662260 -7.707847 -15.651308 6.345697 -8.225468 7.914143 0.406030 12.842752 -2.356644 2.230340 6.169884 3.673837 -0.012780 11.797710 -12.486895 14.867547 -1.017380 -8.025368 30.508744 -11.773705 -9.129096 17.337684 0.309006 -60.231366 -7.855092 6.960728 147.363818 -44.306697 -135.843347 44.383176 11.877881 -68.871431 9.209619 -4.677710 29.326887 3.046939 -6.693977 6.297563 40.187552 -8.886451 28.333028 87.470445 61.623081 115.942007 -39.944278 27.053513 9.613897 0.952999 4.479868 4.310693 
0.151680 -0.004512 0.098558 160.105086 55.227978 -29.847737 2.993991 -9.243448 -8.303540 -4.439902 -8.912168 22.740384 -3.309664 11.200043 -7.048727 6.321999 9.871441 -15.575652 5.657526 -6.041250 8.782276 3.644489 5.595869 -5.298144 9.688702 -15.395171 -7.266159 -18.231744 6.804951 -7.819380 7.595645 0.674006 13.075160 -2.385859 1.750471 4.713728 3.718908 -0.432326 11.444396 -12.953867 12.881049 -2.649431 -6.407769 28.719990 -11.020484 -9.157480 16.529264 1.187609 -61.147978 -7.567328 8.705615 147.898180 -45.225478 -136.699604 43.345649 10.835357 -70.166241 8.582381 -4.611730 29.259671 3.094438 -6.909606 6.304096 40.157860 -10.058499 28.036411 88.894099 63.395458 117.397318 -37.722125 27.368498 9.996552 0.275838 4.602627 4.689165 
0.146030 -0.009281 0.092618 159.512918 59.157098 -28.667687 0.844468 -10.628173 -8.083517 -3.133164 -10.553351 18.007489 -3.305498 10.423111 -4.408874 6.387777 9.876710 -16.353957 4.654960 -5.735093 6.610000 2.732726 3.726083 -4.846196 10.462534 -17.300676 -7.160399 -20.065130 7.316333 -8.238098 7.318073 0.473008 12.596835 -2.737833 1.457001 3.844663 3.572284 -0.842974 11.309941 -13.174652 10.815419 -3.443032 -5.223419 27.256294 -10.844952 -8.915633 15.929618 1.463528 -62.572957 -8.836680 9.775083 147.339577 -45.924091 -136.265773 41.735858 10.060101 -71.063184 8.988913 -4.588431 30.020263 2.409445 -7.249522 6.155015 41.027309 -11.409376 28.191693 90.521693 64.354621 119.108172 -34.967784 26.745324 10.230116 -1.077849 4.569387 5.514634 
0.136288 -0.014966 0.090621 161.450264 61.095802 -26.079801 -1.072589 -10.736316 -5.549774 -2.389342 -11.491908 11.486807 -4.063208 9.807848 -1.591637 7.156663 9.867578 -16.895883 3.055596 -5.648550 5.746234 1.723921 2.754762 -4.390676 11.818741 -18.530938 -7.104797 -22.456224 8.308395 -9.227695 6.835167 0.419679 10.895916 -3.203810 1.582956 3.435205 3.162396 -0.835467 11.161901 -12.912047 9.092882 -3.439801 -4.047984 25.286017 -9.125750 -8.503261 15.954052 1.489723 -63.067310 -9.702680 10.426981 146.420661 -46.267726 -135.678693 41.358419 9.758704 -70.955561 9.112135 -4.444469 30.385142 2.225058 -7.125802 5.884058 42.011349 -11.446233 28.642271 89.276497 64.673110 117.532558 -33.316796 26.329511 11.009730 -2.150211 4.463992 5.972045 
0.126436 -0.019140 0.091030 163.441728 62.250141 -23.197142 -1.698671 -9.838151 -2.651355 -2.262085 -12.054417 3.844537 -6.053958 8.955755 0.827523 9.225478 9.471973 -16.917587 1.601410 -5.683504 4.957123 1.383754 1.979234 -4.346907 13.620281 -19.079228 -7.666793 -25.472493 9.374580 -9.847466 6.257312 0.086239 8.428211 -3.495216 1.676788 3.354097 2.717935 -0.830541 10.738527 -12.101606 6.953147 -3.480459 -2.558140 22.287489 -7.139294 -8.274038 16.183306 1.410873 -62.806382 -10.005911 10.873123 145.760784 -45.968062 -135.378423 40.858298 8.815963 -70.534501 9.025365 -4.206480 30.204152 2.190039 -7.254971 5.333090 42.005233 -11.270589 28.696979 89.567478 64.977363 117.765201 -30.907496 26.452310 12.240676 -3.182934 4.284227 6.501538 
0.117257 -0.021081 0.093986 164.223510 63.560145 -21.452500 -1.402141 -9.054699 0.373123 -2.526827 -12.752800 -3.757483 -8.236379 8.039640 3.219786 10.966093 8.994663 -16.758503 0.551231 -5.575180 4.258655 1.594242 1.058347 -4.021300 14.108069 -19.447780 -8.805034 -26.482819 10.273549 -9.272108 5.718821 -1.229227 5.843865 -3.564217 1.640786 3.554324 2.144513 -1.089165 9.992255 -10.883750 2.314377 -3.441309 -0.671039 16.245817 -5.921132 -8.850508 16.842084 1.445825 -61.784723 -10.200337 11.374864 145.529690 -45.351989 -135.663824 39.331288 7.396640 -71.065237 9.363618 -3.886439 30.220524 2.810929 -7.877744 4.683612 40.644911 -11.645339 28.685268 91.730405 65.104812 120.033961 -28.265319 26.465961 12.914619 -4.298650 4.130065 7.462372 
0.109283 -0.021598 0.098388 164.274083 63.714517 -21.340971 -0.874435 -8.666938 1.891666 -3.159480 -12.959841 -5.940257 -8.558365 7.597400 3.508720 10.694340 8.275042 -16.404333 0.160078 -5.521225 4.959725 2.056468 0.845136 -4.303891 13.306638 -18.978418 -9.203820 -24.950132 9.969621 -7.901967 5.292608 -1.763032 4.625556 -3.322445 1.242797 3.531360 1.747118 -1.440797 9.510492 -9.697754 -4.557520 -3.397947 1.363042 8.772765 -5.598119 -9.763164 17.795287 1.675065 -61.300596 -9.910402 11.512497 145.518423 -45.269595 -135.407420 38.774591 6.399812 -71.421693 9.492664 -3.550266 30.454079 3.588128 -8.494402 3.986462 39.174800 -12.239065 28.045878 93.549938 65.692590 122.653211 -27.851754 27.117201 13.780322 -4.759281 4.244976 8.225009 
0.103400 -0.022489 0.103400 164.979528 62.188944 -20.824029 -0.884842 -8.466710 2.395532 -3.124662 -12.329700 -5.291034 -7.565013 8.123186 2.288727 9.820424 7.509582 -15.773894 0.352598 -5.220696 5.744837 2.002959 1.534520 -4.762454 12.770777 -18.145204 -9.006843 -23.765543 9.192371 -6.994303 4.806124 -1.720947 3.819206 -2.965915 0.888237 3.445915 1.557742 -1.643982 9.368016 -8.784953 -10.815498 -3.275164 3.115483 2.565910 -5.861830 -10.292196 18.812031 1.832005 -61.768178 -9.454753 11.454808 144.813170 -45.403486 -134.245456 38.963976 6.732378 -71.415596 8.880740 -3.358253 30.422807 4.038795 -9.025200 3.252637 38.498820 -12.436181 26.745556 93.984960 68.024751 123.433163 -29.126727 27.397510 14.167116 -4.222139 4.514903 8.101990 
0.099091 -0.022817 0.106909 166.406095 60.015493 -19.060477 -0.772778 -7.694526 2.668307 -3.154498 -11.431497 -5.768001 -6.858780 8.281913 1.922511 9.087251 7.624596 -15.921377 0.286773 -4.758612 5.456916 2.012826 2.432522 -4.871914 12.805299 -16.975693 -8.790855 -23.532655 8.510427 -6.852033 4.823821 -1.754888 3.222764 -2.901338 0.868478 2.789472 1.306334 -1.944732 9.111983 -8.588283 -14.919259 -3.692430 3.786241 -1.251626 -6.429957 -10.199623 19.908582 1.347212 -63.943970 -10.464467 11.300766 142.875058 -45.718358 -131.814838 38.226522 8.156672 -71.610589 7.884084 -3.126183 29.829442 3.742329 -10.168534 2.521208 39.439147 -12.513316 24.718375 91.540770 73.379814 118.356060 -31.684519 25.047919 10.244233 -2.578304 4.548389 7.126996 
